HIERARCHY
ROOT root
{
	OFFSET 0.000000 0.000000 0.000000
	CHANNELS 6 Xposition Yposition Zposition Zrotation Yrotation Xrotation
	JOINT lhip
	{
		OFFSET 0.058581 -0.082280 -0.017664
		CHANNELS 3 Zrotation Yrotation Xrotation
		JOINT lknee
		{
			OFFSET 0.043451 -0.386469 0.008037
			CHANNELS 3 Zrotation Yrotation Xrotation
			JOINT lankle
			{
				OFFSET -0.014790 -0.426874 -0.037428
				CHANNELS 3 Zrotation Yrotation Xrotation
				JOINT ltoe
				{
					OFFSET 0.041054 -0.060286 0.122042
					CHANNELS 3 Zrotation Yrotation Xrotation
					End Site
					{
						OFFSET 0.000000 0.000000 0.000000
					}
				}
			}
		}
	}
	JOINT rhip
	{
		OFFSET -0.060310 -0.090513 -0.013543
		CHANNELS 3 Zrotation Yrotation Xrotation
		JOINT rknee
		{
			OFFSET -0.043257 -0.383688 -0.004843
			CHANNELS 3 Zrotation Yrotation Xrotation
			JOINT rankle
			{
				OFFSET 0.019056 -0.420046 -0.034562
				CHANNELS 3 Zrotation Yrotation Xrotation
				JOINT rtoe
				{
					OFFSET -0.034840 -0.062106 0.130323
					CHANNELS 3 Zrotation Yrotation Xrotation
					End Site
					{
						OFFSET 0.000000 0.000000 0.000000
					}
				}
			}
		}
	}
	JOINT lowerback
	{
		OFFSET 0.004439 0.124404 -0.038385
		CHANNELS 3 Zrotation Yrotation Xrotation
		JOINT upperback
		{
			OFFSET 0.004488 0.137956 0.026820
			CHANNELS 3 Zrotation Yrotation Xrotation
			JOINT chest
			{
				OFFSET -0.002265 0.056032 0.002855
				CHANNELS 3 Zrotation Yrotation Xrotation
				JOINT lowerneck
				{
					OFFSET -0.013390 0.211636 -0.033468
					CHANNELS 3 Zrotation Yrotation Xrotation
					JOINT upperneck
					{
						OFFSET 0.010113 0.088937 0.050410
						CHANNELS 3 Zrotation Yrotation Xrotation
						End Site
						{
							OFFSET 0.000000 0.000000 0.000000
						}
					}
				}
				JOINT lclavicle
				{
					OFFSET 0.071702 0.114000 -0.018898
					CHANNELS 3 Zrotation Yrotation Xrotation
					JOINT lshoulder
					{
						OFFSET 0.122921 0.045205 -0.019046
						CHANNELS 3 Zrotation Yrotation Xrotation
						JOINT lelbow
						{
							OFFSET 0.255332 -0.015649 -0.022946
							CHANNELS 3 Zrotation Yrotation Xrotation
							JOINT lwrist
							{
								OFFSET 0.265709 0.012698 -0.007375
								CHANNELS 3 Zrotation Yrotation Xrotation
								End Site
								{
									OFFSET 0.000000 0.000000 0.000000
								}
							}
						}
					}
				}
				JOINT rclavicle
				{
					OFFSET -0.082954 0.112472 -0.023707
					CHANNELS 3 Zrotation Yrotation Xrotation
					JOINT rshoulder
					{
						OFFSET -0.113228 0.046853 -0.008472
						CHANNELS 3 Zrotation Yrotation Xrotation
						JOINT relbow
						{
							OFFSET -0.260127 -0.014369 -0.031269
							CHANNELS 3 Zrotation Yrotation Xrotation
							JOINT rwrist
							{
								OFFSET -0.269108 0.006794 -0.006027
								CHANNELS 3 Zrotation Yrotation Xrotation
								End Site
								{
									OFFSET 0.000000 0.000000 0.000000
								}
							}
						}
					}
				}
			}
		}
	}
}
MOTION
Frames: 5
Frame Time: 0.033333
-0.918230 -0.232631 0.978981 175.890190 2.093718 89.612188 10.704460 5.408697 -0.962277 -2.529891 -2.384758 3.967355 -0.008447 10.045148 -8.914496 0.000000 -0.000000 0.000000 -7.579090 -5.449377 -8.473128 1.025924 -3.230259 17.070660 4.457886 -4.747358 -7.710126 0.000000 -0.000000 0.000000 0.598771 1.395173 8.398701 2.953911 -1.412696 2.020116 -1.817836 0.382537 -4.477666 2.121097 2.396123 -5.015730 1.175875 -1.896695 8.665043 -29.760131 -3.210586 2.193289 -56.883330 -6.701593 9.742090 14.798232 -12.421646 -9.723935 4.053037 -9.429427 -2.493899 28.087123 9.483388 4.245844 51.262600 9.636987 10.951481 -14.957298 13.326128 -6.916866 1.304957 7.989044 8.007602 
-0.915669 -0.230153 0.978976 176.080100 2.163419 89.459320 10.913725 5.302311 -0.867607 -2.477134 -2.493160 4.370175 -0.111961 10.084972 -9.101890 0.000000 -0.000000 0.000000 -7.343037 -5.276444 -8.065251 1.098255 -3.129427 17.111994 4.393059 -5.193678 -8.107363 0.000000 -0.000000 0.000000 0.721652 1.310935 8.308245 2.909299 -1.452503 2.221215 -1.680838 0.289484 -4.403970 2.150926 2.306777 -5.191677 1.041543 -1.780846 8.868912 -29.977926 -3.350434 2.414209 -57.189543 -6.439227 9.790223 14.688823 -12.397224 -9.302534 4.278895 -9.229379 -2.638831 27.912546 9.539593 3.975326 51.017288 9.777726 10.968186 -15.060090 14.227156 -6.687894 1.080408 8.043510 8.104398 
-0.913336 -0.227831 0.978945 176.365910 2.199676 89.336045 11.105040 5.306032 -0.743359 -2.465016 -2.635842 4.585196 -0.174530 9.970196 -9.209774 0.000000 -0.000000 0.000000 -7.195591 -5.220112 -7.708139 1.131848 -3.242605 17.185051 4.236942 -5.309488 -8.345641 0.000000 -0.000000 0.000000 0.756090 1.250146 8.246910 2.967185 -1.530744 2.261514 -1.653745 0.162952 -4.317869 2.248935 2.255482 -5.152340 0.964836 -1.839874 9.025427 -30.053415 -3.446582 2.583606 -57.390381 -6.214786 9.859991 14.477513 -12.369320 -8.867733 4.340798 -9.129258 -2.602036 27.843809 9.520534 3.893634 50.903332 9.945506 10.840747 -15.134225 15.013175 -6.760854 0.906486 8.017610 7.966645 
-0.910642 -0.224880 0.978580 176.888520 2.206165 89.239986 11.311069 5.334662 -0.494998 -2.456285 -2.899588 4.474377 -0.253150 9.742745 -9.172910 0.000000 -0.000000 0.000000 -7.284578 -5.238188 -7.237957 1.437353 -3.648616 17.202837 4.245362 -5.379031 -8.505487 0.000000 -0.000000 0.000000 0.826600 1.063286 8.285229 2.949390 -1.627211 2.072306 -1.632378 0.047223 -4.249960 2.355552 2.047511 -5.034295 0.913819 -1.918180 9.478699 -30.090214 -3.386829 2.753155 -57.451291 -6.058760 10.019365 14.066113 -12.455987 -7.962360 4.280045 -8.992309 -2.529871 27.900619 9.412461 3.921232 50.955221 10.095816 10.770691 -15.289493 15.762880 -6.947520 0.724127 7.971226 7.406517 
-0.909971 -0.223976 0.978401 177.049581 2.200677 89.209975 11.338369 5.319207 -0.374850 -2.417906 -2.989323 4.353802 -0.299351 9.693465 -9.129956 0.000000 -0.000000 0.000000 -7.354284 -5.218687 -7.081488 1.537024 -3.837804 17.195641 4.274939 -5.391531 -8.551911 0.000000 -0.000000 0.000000 0.873655 0.976507 8.341305 2.899564 -1.608356 1.964761 -1.615072 0.009158 -4.241007 2.386321 1.930036 -4.965523 0.906941 -1.885722 9.600120 -30.107515 -3.343507 2.779117 -57.435338 -6.037403 10.056440 13.955263 -12.513794 -7.715165 4.321852 -8.946101 -2.535599 27.923407 9.377860 3.934137 50.999813 10.077728 10.821697 -15.242035 15.951404 -6.891386 0.673553 7.947329 7.241024 
